<?xml version="1.0" encoding="utf-8"?>
<!-- Generator: Adobe Illustrator 17.0.0, SVG Export Plug-In . SVG Version: 6.00 Build 0)  -->
<!DOCTYPE svg PUBLIC "-//W3C//DTD SVG 1.1//EN" "http://www.w3.org/Graphics/SVG/1.1/DTD/svg11.dtd">
<svg version="1.1" id="Layer_1" xmlns="http://www.w3.org/2000/svg" xmlns:xlink="http://www.w3.org/1999/xlink" x="0px" y="0px"
	 width="60px" height="60px" viewBox="0 0 60 60" enable-background="new 0 0 60 60" xml:space="preserve">
<g>
	<circle fill="#FFFFFF" stroke="#333333" stroke-miterlimit="10" cx="30" cy="30" r="29.987"/>
	<g>
		<path fill="#333333" d="M0.013,24.72c0.8-4.464,2.464-8.463,5.042-12.178c0.759,0.76,1.482,1.484,2.205,2.208
			c0.351,0.351,0.697,0.706,1.053,1.052c0.775,0.753,1.577,0.683,2.293-0.141c0.974-1.122,1.948-2.247,2.982-3.312
			c0.604-0.622,1.32-1.138,1.997-1.689c0.937-0.763,0.997-1.559,0.154-2.407c-1.047-1.053-2.101-2.099-3.199-3.194
			c3.695-2.573,7.693-4.234,12.142-5.041c0.014,0.242,0.035,0.447,0.035,0.652c0.003,1.33-0.006,2.659,0.005,3.989
			c0.009,1.07,0.688,1.63,1.735,1.478c2.369-0.344,4.74-0.346,7.109,0.005c1.006,0.149,1.698-0.421,1.708-1.45
			c0.013-1.349,0.004-2.699,0.004-4.048c0-0.19,0-0.379,0-0.629c4.464,0.8,8.463,2.464,12.178,5.042
			c-0.76,0.759-1.484,1.482-2.208,2.205c-0.351,0.351-0.706,0.697-1.052,1.053c-0.754,0.776-0.685,1.576,0.14,2.293
			c1.122,0.974,2.247,1.948,3.312,2.982c0.623,0.604,1.138,1.32,1.689,1.997c0.764,0.937,1.559,0.998,2.407,0.155
			c1.053-1.047,2.098-2.102,3.194-3.2c2.573,3.696,4.234,7.694,5.042,12.143c-0.242,0.014-0.447,0.035-0.652,0.035
			c-1.33,0.003-2.659-0.006-3.989,0.005c-1.07,0.009-1.63,0.688-1.478,1.736c0.344,2.369,0.346,4.74-0.005,7.11
			c-0.149,1.006,0.421,1.698,1.45,1.708c1.349,0.013,2.699,0.004,4.048,0.004c0.19,0,0.379,0,0.629,0
			c-0.8,4.464-2.464,8.463-5.042,12.178c-0.759-0.76-1.482-1.484-2.205-2.208c-0.351-0.351-0.697-0.706-1.053-1.052
			c-0.776-0.754-1.576-0.684-2.293,0.141c-0.974,1.122-1.949,2.246-2.982,3.312c-0.59,0.609-1.289,1.115-1.952,1.65
			c-1.001,0.807-1.059,1.585-0.159,2.489c1.034,1.038,2.072,2.072,3.155,3.154c-3.691,2.571-7.69,4.231-12.139,5.039
			c-0.014-0.242-0.035-0.447-0.036-0.651c-0.003-1.33,0.006-2.659-0.005-3.989c-0.009-1.07-0.688-1.631-1.735-1.478
			c-2.369,0.344-4.74,0.346-7.109-0.005c-1.007-0.149-1.699,0.421-1.709,1.45c-0.013,1.349-0.004,2.699-0.004,4.048
			c0,0.191,0,0.381,0,0.629c-4.464-0.8-8.463-2.464-12.252-5.093c0.33-0.283,0.626-0.508,0.889-0.767
			c0.835-0.821,1.665-1.646,2.483-2.484c0.69-0.707,0.676-1.571-0.098-2.16c-1.988-1.512-3.728-3.259-5.242-5.245
			c-0.571-0.748-1.437-0.766-2.118-0.101c-0.966,0.942-1.911,1.906-2.866,2.859c-0.138,0.138-0.283,0.269-0.47,0.446
			c-2.561-3.676-4.219-7.675-5.03-12.124c0.244-0.014,0.448-0.035,0.653-0.036c1.33-0.003,2.659,0.006,3.989-0.005
			c1.07-0.009,1.63-0.688,1.478-1.735c-0.344-2.369-0.346-4.74,0.005-7.11c0.149-1.006-0.421-1.698-1.45-1.708
			c-1.349-0.013-2.699-0.004-4.048-0.004C0.452,24.72,0.263,24.72,0.013,24.72z M30.015,12.109
			C20.123,12.1,12.128,20.076,12.109,29.97c-0.019,9.89,7.951,17.892,17.846,17.92C39.866,47.919,47.891,39.914,47.891,30
			C47.891,20.108,39.908,12.119,30.015,12.109z M17.778,14.137c1.58-0.919,3.076-1.79,4.589-2.67
			c-0.282-0.489-0.552-0.997-0.867-1.476c-0.076-0.116-0.341-0.232-0.448-0.186c-1.526,0.667-2.952,1.507-4.304,2.557
			C17.11,12.985,17.453,13.577,17.778,14.137z M42.225,14.139c0.333-0.577,0.675-1.172,1.101-1.912
			c-1.484-0.827-2.911-1.629-4.35-2.409c-0.102-0.055-0.369,0.003-0.428,0.093c-0.338,0.523-0.636,1.072-0.913,1.551
			C39.192,12.371,40.674,13.235,42.225,14.139z M14.139,17.776c-0.569-0.327-1.163-0.669-1.909-1.099
			c-0.832,1.49-1.643,2.933-2.434,4.386c-0.048,0.088,0.017,0.328,0.102,0.383c0.527,0.335,1.076,0.637,1.567,0.921
			C12.366,20.819,13.23,19.337,14.139,17.776z M48.534,22.366c0.482-0.277,0.989-0.547,1.468-0.86
			c0.118-0.077,0.246-0.352,0.196-0.443c-0.785-1.456-1.597-2.897-2.43-4.388c-0.759,0.438-1.363,0.787-1.907,1.101
			C46.771,19.339,47.634,20.822,48.534,22.366z M11.464,37.633c-0.495,0.286-1.003,0.557-1.481,0.872
			c-0.113,0.075-0.221,0.342-0.173,0.451c0.668,1.524,1.503,2.952,2.554,4.296c0.628-0.364,1.219-0.708,1.773-1.03
			C13.237,40.676,12.365,39.18,11.464,37.633z M47.769,43.327c0.83-1.489,1.632-2.916,2.416-4.353
			c0.054-0.099,0.024-0.349-0.051-0.396c-0.541-0.345-1.105-0.656-1.597-0.941c-0.918,1.572-1.79,3.067-2.678,4.588
			C46.428,42.552,47.007,42.887,47.769,43.327z M16.672,47.772c1.489,0.83,2.917,1.631,4.354,2.414
			c0.099,0.054,0.349,0.025,0.397-0.05c0.345-0.542,0.656-1.105,0.941-1.598c-1.572-0.918-3.066-1.79-4.587-2.678
			C17.449,46.427,17.114,47.007,16.672,47.772z M42.222,45.863c-1.578,0.918-3.074,1.789-4.589,2.67
			c0.279,0.485,0.549,0.993,0.863,1.472c0.077,0.117,0.34,0.238,0.446,0.192c1.527-0.666,2.952-1.509,4.307-2.556
			C42.891,47.019,42.548,46.427,42.222,45.863z M27.395,7.989c0,0.813,0,1.514,0,2.173c1.752,0,3.463,0,5.21,0
			c0-0.664,0-1.364,0-2.173C30.852,7.989,29.139,7.989,27.395,7.989z M10.162,32.621c0-1.772,0-3.483,0-5.224
			c-0.669,0-1.368,0-2.095,0c-0.213,1.768-0.244,3.491,0.018,5.224C8.826,32.621,9.494,32.621,10.162,32.621z M49.838,32.611
			c0.687,0,1.372,0,2.154,0c0-1.759,0-3.484,0-5.22c-0.816,0-1.501,0-2.154,0C49.838,29.138,49.838,30.85,49.838,32.611z
			 M32.598,51.998c0-0.817,0-1.518,0-2.159c-1.758,0-3.469,0-5.211,0c0,0.665,0,1.35,0,2.159
			C29.135,51.998,30.86,51.998,32.598,51.998z M4.126,19.956C4.13,20.808,4.86,21.55,5.704,21.56
			c0.859,0.01,1.632-0.766,1.624-1.631c-0.008-0.84-0.757-1.597-1.591-1.609C4.878,18.309,4.123,19.076,4.126,19.956z M55.873,19.96
			c0.005-0.881-0.747-1.648-1.606-1.639c-0.834,0.009-1.584,0.763-1.594,1.605c-0.011,0.865,0.76,1.643,1.619,1.635
			C55.137,21.553,55.869,20.812,55.873,19.96z M5.735,38.44c-0.846-0.009-1.593,0.723-1.607,1.573
			c-0.015,0.888,0.714,1.658,1.578,1.667c0.855,0.009,1.63-0.773,1.622-1.637C7.32,39.201,6.573,38.449,5.735,38.44z M55.874,40.049
			c-0.002-0.854-0.727-1.596-1.573-1.609c-0.858-0.013-1.635,0.762-1.629,1.626c0.005,0.84,0.751,1.599,1.586,1.614
			C55.116,41.695,55.875,40.928,55.874,40.049z M21.56,5.742c0.013-0.845-0.717-1.598-1.566-1.614
			c-0.89-0.017-1.66,0.706-1.674,1.57c-0.013,0.833,0.724,1.596,1.57,1.626C20.758,7.355,21.547,6.607,21.56,5.742z M40.069,4.126
			c-0.886-0.005-1.641,0.742-1.63,1.612c0.011,0.838,0.764,1.584,1.606,1.59c0.864,0.006,1.644-0.771,1.634-1.626
			C41.669,4.865,40.919,4.131,40.069,4.126z M19.944,55.874c0.855,0.001,1.6-0.721,1.616-1.566c0.017-0.858-0.755-1.638-1.62-1.636
			c-0.84,0.002-1.602,0.744-1.62,1.58C18.301,55.108,19.067,55.873,19.944,55.874z M40.079,55.873c0.85-0.008,1.596-0.748,1.6-1.585
			c0.004-0.855-0.781-1.627-1.643-1.615c-0.844,0.011-1.592,0.76-1.596,1.599C38.435,55.142,39.192,55.882,40.079,55.873z"/>
		<path fill="#FFFFFF" d="M30.015,12.109C39.908,12.119,47.891,20.108,47.891,30c0,9.914-8.024,17.919-17.935,17.891
			c-9.895-0.028-17.865-8.031-17.846-17.92C12.128,20.076,20.123,12.1,30.015,12.109z M30.06,42.026
			c0.893,0,1.787,0.026,2.678-0.015c0.302-0.014,0.751-0.121,0.852-0.325c0.107-0.217-0.064-0.627-0.208-0.903
			c-0.494-0.946-1.051-1.859-1.533-2.81c-0.135-0.266-0.094-0.622-0.133-0.937c0.31,0.061,0.644,0.066,0.926,0.191
			c3.938,1.743,8.509-1.202,8.549-5.512c0.021-2.266-0.862-4.212-2.143-5.995c-2.272-3.163-5.287-5.506-8.531-7.583
			c-0.403-0.258-0.774-0.166-1.162,0.078c-2.14,1.347-4.13,2.886-5.942,4.647c-1.487,1.445-2.787,3.04-3.684,4.931
			c-0.728,1.536-1.132,3.145-0.839,4.842c0.685,3.97,5.045,6.339,8.819,4.421c0.181-0.092,0.433-0.044,0.653-0.061
			c0,0.221,0.078,0.482-0.012,0.655c-0.574,1.104-1.197,2.182-1.773,3.284c-0.114,0.219-0.205,0.564-0.109,0.747
			c0.096,0.183,0.437,0.321,0.676,0.33C28.114,42.046,29.087,42.025,30.06,42.026z"/>
		<path fill="#00FFF2" stroke="#00FFF2" stroke-width="0.5" stroke-miterlimit="10" d="M17.778,14.137
			c-0.325-0.56-0.668-1.153-1.028-1.775c1.352-1.049,2.777-1.89,4.304-2.557c0.107-0.047,0.371,0.07,0.448,0.186
			c0.315,0.479,0.585,0.987,0.867,1.476C20.854,12.347,19.358,13.218,17.778,14.137z"/>
		<path fill="#00FFF2" stroke="#00FFF2" stroke-width="0.5" stroke-miterlimit="10" d="M42.225,14.139
			c-1.552-0.905-3.034-1.769-4.59-2.676c0.277-0.48,0.575-1.028,0.913-1.551c0.059-0.091,0.326-0.149,0.428-0.093
			c1.439,0.78,2.866,1.582,4.35,2.409C42.9,12.967,42.558,13.562,42.225,14.139z"/>
		<path fill="#00FFF2" stroke="#00FFF2" stroke-width="0.5" stroke-miterlimit="10" d="M14.139,17.776
			c-0.909,1.561-1.772,3.044-2.673,4.591c-0.491-0.284-1.04-0.586-1.567-0.921c-0.086-0.054-0.15-0.295-0.102-0.383
			c0.791-1.453,1.602-2.896,2.434-4.386C12.976,17.106,13.57,17.448,14.139,17.776z"/>
		<path fill="#00FFF2" stroke="#00FFF2" stroke-width="0.5" stroke-miterlimit="10" d="M48.534,22.366
			c-0.899-1.544-1.762-3.027-2.672-4.59c0.544-0.314,1.148-0.663,1.907-1.101c0.832,1.491,1.645,2.932,2.43,4.388
			c0.049,0.091-0.078,0.365-0.196,0.443C49.523,21.819,49.015,22.089,48.534,22.366z"/>
		<path fill="#00FFF2" stroke="#00FFF2" stroke-width="0.5" stroke-miterlimit="10" d="M11.464,37.633
			c0.901,1.547,1.772,3.043,2.673,4.589c-0.555,0.322-1.146,0.665-1.773,1.03c-1.051-1.343-1.886-2.771-2.554-4.296
			c-0.048-0.109,0.06-0.376,0.173-0.451C10.461,38.19,10.969,37.919,11.464,37.633z"/>
		<path fill="#00FFF2" stroke="#00FFF2" stroke-width="0.5" stroke-miterlimit="10" d="M47.769,43.327
			c-0.762-0.44-1.342-0.775-1.91-1.103c0.888-1.521,1.76-3.015,2.678-4.588c0.492,0.285,1.055,0.596,1.597,0.941
			c0.075,0.048,0.105,0.297,0.051,0.396C49.402,40.411,48.6,41.838,47.769,43.327z"/>
		<path fill="#00FFF2" stroke="#00FFF2" stroke-width="0.5" stroke-miterlimit="10" d="M16.672,47.772
			c0.442-0.765,0.777-1.344,1.105-1.912c1.521,0.888,3.016,1.76,4.587,2.678c-0.285,0.493-0.596,1.056-0.941,1.598
			c-0.048,0.075-0.297,0.104-0.397,0.05C19.589,49.402,18.161,48.601,16.672,47.772z"/>
		<path fill="#00FFF2" stroke="#00FFF2" stroke-width="0.5" stroke-miterlimit="10" d="M42.222,45.863
			c0.326,0.564,0.669,1.156,1.028,1.777c-1.355,1.047-2.78,1.89-4.307,2.556c-0.106,0.046-0.369-0.075-0.446-0.192
			c-0.314-0.479-0.584-0.987-0.863-1.472C39.148,47.652,40.645,46.781,42.222,45.863z"/>
		<path fill="#00FFF2" stroke="#00FFF2" stroke-width="0.5" stroke-miterlimit="10" d="M27.395,7.989c1.744,0,3.457,0,5.21,0
			c0,0.808,0,1.508,0,2.173c-1.747,0-3.458,0-5.21,0C27.395,9.503,27.395,8.802,27.395,7.989z"/>
		<path fill="#00FFF2" stroke="#00FFF2" stroke-width="0.5" stroke-miterlimit="10" d="M10.162,32.621c-0.668,0-1.337,0-2.077,0
			c-0.263-1.733-0.231-3.456-0.018-5.224c0.727,0,1.426,0,2.095,0C10.162,29.138,10.162,30.849,10.162,32.621z"/>
		<path fill="#00FFF2" stroke="#00FFF2" stroke-width="0.5" stroke-miterlimit="10" d="M49.838,32.611c0-1.761,0-3.473,0-5.22
			c0.653,0,1.338,0,2.154,0c0,1.736,0,3.461,0,5.22C51.21,32.611,50.524,32.611,49.838,32.611z"/>
		<path fill="#00FFF2" stroke="#00FFF2" stroke-width="0.5" stroke-miterlimit="10" d="M32.598,51.998c-1.738,0-3.463,0-5.211,0
			c0-0.81,0-1.495,0-2.159c1.742,0,3.453,0,5.211,0C32.598,50.48,32.598,51.181,32.598,51.998z"/>
		<path fill="#FFFFFF" d="M4.126,19.956c-0.004-0.88,0.752-1.647,1.61-1.635c0.834,0.011,1.583,0.768,1.591,1.609
			c0.008,0.865-0.765,1.641-1.624,1.631C4.86,21.55,4.13,20.808,4.126,19.956z"/>
		<path fill="#FFFFFF" d="M55.873,19.96c-0.005,0.852-0.737,1.593-1.581,1.6c-0.86,0.008-1.63-0.77-1.619-1.635
			c0.011-0.841,0.76-1.596,1.594-1.605C55.126,18.311,55.878,19.079,55.873,19.96z"/>
		<path fill="#FFFFFF" d="M5.735,38.44c0.838,0.009,1.585,0.761,1.593,1.603c0.008,0.863-0.767,1.645-1.622,1.637
			c-0.864-0.009-1.592-0.779-1.578-1.667C4.142,39.163,4.889,38.431,5.735,38.44z"/>
		<path fill="#FFFFFF" d="M55.874,40.049c0.002,0.878-0.758,1.645-1.616,1.63c-0.835-0.015-1.581-0.773-1.586-1.614
			c-0.006-0.864,0.771-1.639,1.629-1.626C55.146,38.453,55.872,39.196,55.874,40.049z"/>
		<path fill="#FFFFFF" d="M21.56,5.742c-0.014,0.865-0.802,1.612-1.67,1.582c-0.846-0.03-1.583-0.793-1.57-1.626
			c0.014-0.864,0.784-1.587,1.674-1.57C20.843,4.144,21.573,4.898,21.56,5.742z"/>
		<path fill="#FFFFFF" d="M40.069,4.126c0.85,0.005,1.6,0.739,1.61,1.576c0.011,0.855-0.77,1.632-1.634,1.626
			c-0.842-0.006-1.596-0.752-1.606-1.59C38.429,4.868,39.184,4.121,40.069,4.126z"/>
		<path fill="#FFFFFF" d="M19.944,55.874c-0.877-0.001-1.643-0.766-1.624-1.622c0.019-0.836,0.78-1.579,1.62-1.58
			c0.865-0.002,1.636,0.778,1.62,1.636C21.544,55.153,20.799,55.875,19.944,55.874z"/>
		<path fill="#FFFFFF" d="M40.079,55.873c-0.887,0.009-1.644-0.731-1.639-1.601c0.005-0.839,0.752-1.587,1.596-1.599
			c0.862-0.012,1.648,0.76,1.643,1.615C41.675,55.126,40.929,55.865,40.079,55.873z"/>
		<path fill="#333333" d="M30.06,42.026c-0.972-0.001-1.945,0.021-2.916-0.016c-0.239-0.009-0.58-0.147-0.676-0.33
			c-0.096-0.183-0.005-0.528,0.109-0.747c0.576-1.103,1.199-2.181,1.773-3.284c0.09-0.174,0.013-0.435,0.012-0.655
			c-0.219,0.017-0.471-0.031-0.653,0.061c-3.774,1.918-8.134-0.451-8.819-4.421c-0.293-1.697,0.111-3.306,0.839-4.842
			c0.896-1.891,2.196-3.486,3.684-4.931c1.813-1.761,3.802-3.3,5.942-4.647c0.387-0.244,0.759-0.336,1.162-0.078
			c3.244,2.077,6.259,4.421,8.531,7.583c1.281,1.783,2.164,3.73,2.143,5.995c-0.04,4.309-4.61,7.255-8.549,5.512
			c-0.282-0.125-0.616-0.13-0.926-0.191c0.04,0.315-0.002,0.67,0.133,0.937c0.482,0.951,1.04,1.864,1.533,2.81
			c0.144,0.276,0.315,0.686,0.208,0.903c-0.101,0.204-0.55,0.311-0.852,0.325C31.847,42.052,30.953,42.026,30.06,42.026z"/>
	</g>
</g>
</svg>
